<svg width="24" height="30" viewBox="0 0 24 30" fill="none" xmlns="http://www.w3.org/2000/svg">
<path d="M12 25.8666L18.6 19.2666C19.9052 17.9613 20.794 16.2983 21.1541 14.4878C21.5141 12.6773 21.3292 10.8008 20.6228 9.09539C19.9163 7.39 18.7201 5.93239 17.1852 4.90687C15.6504 3.88135 13.8459 3.33398 12 3.33398C10.1541 3.33398 8.34962 3.88135 6.81478 4.90687C5.27994 5.93239 4.08367 7.39 3.37722 9.09539C2.67078 10.8008 2.48589 12.6773 2.84594 14.4878C3.20599 16.2983 4.09481 17.9613 5.40001 19.2666L12 25.8666ZM12 29.6373L3.51467 21.152C1.83646 19.4737 0.693582 17.3355 0.230571 15.0078C-0.232439 12.68 0.00520913 10.2672 0.913465 8.07451C1.82172 5.88181 3.35979 4.00767 5.33318 2.6891C7.30656 1.37053 9.62664 0.666748 12 0.666748C14.3734 0.666748 16.6934 1.37053 18.6668 2.6891C20.6402 4.00767 22.1783 5.88181 23.0865 8.07451C23.9948 10.2672 24.2325 12.68 23.7694 15.0078C23.3064 17.3355 22.1636 19.4737 20.4853 21.152L12 29.6373ZM10.6667 11.3333V7.33331H13.3333V11.3333H17.3333V14H13.3333V18H10.6667V14H6.66667V11.3333H10.6667Z" fill="white"/>
</svg>
