<svg width="26" height="28" viewBox="0 0 26 28" fill="none" xmlns="http://www.w3.org/2000/svg">
<path d="M24.2249 5H19.7249V3.5C19.7249 2.57174 19.3561 1.6815 18.6997 1.02513C18.0434 0.368749 17.1531 0 16.2249 0H10.2249C9.2966 0 8.40636 0.368749 7.74998 1.02513C7.0936 1.6815 6.72485 2.57174 6.72485 3.5V5H2.22485C1.82703 5 1.4455 5.15804 1.16419 5.43934C0.882889 5.72064 0.724854 6.10218 0.724854 6.5C0.724854 6.89782 0.882889 7.27936 1.16419 7.56066C1.4455 7.84196 1.82703 8 2.22485 8H2.72485V25C2.72485 25.663 2.98825 26.2989 3.45709 26.7678C3.92593 27.2366 4.56181 27.5 5.22485 27.5H21.2249C21.8879 27.5 22.5238 27.2366 22.9926 26.7678C23.4615 26.2989 23.7249 25.663 23.7249 25V8H24.2249C24.6227 8 25.0042 7.84196 25.2855 7.56066C25.5668 7.27936 25.7249 6.89782 25.7249 6.5C25.7249 6.10218 25.5668 5.72064 25.2855 5.43934C25.0042 5.15804 24.6227 5 24.2249 5ZM9.72485 3.5C9.72485 3.36739 9.77753 3.24021 9.8713 3.14645C9.96507 3.05268 10.0922 3 10.2249 3H16.2249C16.3575 3 16.4846 3.05268 16.5784 3.14645C16.6722 3.24021 16.7249 3.36739 16.7249 3.5V5H9.72485V3.5ZM20.7249 24.5H5.72485V8H20.7249V24.5ZM11.7249 12V20C11.7249 20.3978 11.5668 20.7794 11.2855 21.0607C11.0042 21.342 10.6227 21.5 10.2249 21.5C9.82703 21.5 9.4455 21.342 9.16419 21.0607C8.88289 20.7794 8.72485 20.3978 8.72485 20V12C8.72485 11.6022 8.88289 11.2206 9.16419 10.9393C9.4455 10.658 9.82703 10.5 10.2249 10.5C10.6227 10.5 11.0042 10.658 11.2855 10.9393C11.5668 11.2206 11.7249 11.6022 11.7249 12ZM17.7249 12V20C17.7249 20.3978 17.5668 20.7794 17.2855 21.0607C17.0042 21.342 16.6227 21.5 16.2249 21.5C15.827 21.5 15.4455 21.342 15.1642 21.0607C14.8829 20.7794 14.7249 20.3978 14.7249 20V12C14.7249 11.6022 14.8829 11.2206 15.1642 10.9393C15.4455 10.658 15.827 10.5 16.2249 10.5C16.6227 10.5 17.0042 10.658 17.2855 10.9393C17.5668 11.2206 17.7249 11.6022 17.7249 12Z" fill="white"/>
</svg>
