<svg width="28" height="28" viewBox="0 0 28 28" fill="none" xmlns="http://www.w3.org/2000/svg">
<path d="M26.0582 13.8411C25.7046 13.8411 25.3654 13.9815 25.1154 14.2316C24.8653 14.4816 24.7249 14.8208 24.7249 15.1744V23.1744C24.7249 23.528 24.5844 23.8672 24.3343 24.1172C24.0843 24.3673 23.7451 24.5077 23.3915 24.5077H4.72485C4.37123 24.5077 4.03209 24.3673 3.78204 24.1172C3.532 23.8672 3.39152 23.528 3.39152 23.1744V4.50773C3.39152 4.15411 3.532 3.81497 3.78204 3.56492C4.03209 3.31487 4.37123 3.1744 4.72485 3.1744H12.7249C13.0785 3.1744 13.4176 3.03392 13.6677 2.78387C13.9177 2.53383 14.0582 2.19469 14.0582 1.84106C14.0582 1.48744 13.9177 1.1483 13.6677 0.898255C13.4176 0.648207 13.0785 0.507731 12.7249 0.507731H4.72485C3.66399 0.507731 2.64657 0.929159 1.89643 1.6793C1.14628 2.42945 0.724854 3.44687 0.724854 4.50773V23.1744C0.724854 24.2353 1.14628 25.2527 1.89643 26.0028C2.64657 26.753 3.66399 27.1744 4.72485 27.1744H23.3915C24.4524 27.1744 25.4698 26.753 26.2199 26.0028C26.9701 25.2527 27.3915 24.2353 27.3915 23.1744V15.1744C27.3915 14.8208 27.251 14.4816 27.001 14.2316C26.7509 13.9815 26.4118 13.8411 26.0582 13.8411ZM6.05819 14.8544V20.5077C6.05819 20.8614 6.19866 21.2005 6.44871 21.4505C6.69876 21.7006 7.0379 21.8411 7.39152 21.8411H13.0449C13.2203 21.8421 13.3943 21.8084 13.5567 21.7421C13.7192 21.6757 13.8669 21.578 13.9915 21.4544L23.2182 12.2144L27.0049 8.50773C27.1298 8.38378 27.229 8.23631 27.2967 8.07383C27.3644 7.91135 27.3993 7.73708 27.3993 7.56106C27.3993 7.38505 27.3644 7.21077 27.2967 7.0483C27.229 6.88582 27.1298 6.73835 27.0049 6.6144L21.3515 0.894398C21.2276 0.769426 21.0801 0.670234 20.9176 0.602543C20.7551 0.534851 20.5809 0.5 20.4049 0.5C20.2288 0.5 20.0546 0.534851 19.8921 0.602543C19.7296 0.670234 19.5821 0.769426 19.4582 0.894398L15.6982 4.66773L6.44485 13.9077C6.32128 14.0323 6.22351 14.1801 6.15716 14.3425C6.09081 14.505 6.05717 14.6789 6.05819 14.8544ZM20.4049 3.72106L24.1782 7.4944L22.2849 9.38773L18.5115 5.6144L20.4049 3.72106ZM8.72485 15.4011L16.6315 7.4944L20.4049 11.2677L12.4982 19.1744H8.72485V15.4011Z" fill="white"/>
</svg>
